# xmcd
#
# Track frame offsets:
#	150
#	16448
#	30446
#	42246
#	57114
#	68439
#	79578
#	96442
#	108980
#	121452
#	133246
#	144984
#	156318
#	168248
#	183841
#	196813
#	211141
#	223087
#
# Disc length: 3106 seconds
#
# Revision: 0
# Processed by: cddbd v1.5.1PL0 Copyright (c) Steve Scherf et al.
# Submitted via: audiograbber 1.83.01
#
DISCID=f30c2012
DTITLE=Compilation - Country and Western Highlights - CD2
DYEAR=2004
DGENRE=Country
TTITLE0=Bobby Bare - Me and Bobby McGee
TTITLE1=Barbara Perry - Why can't women have a good bear drinking song
TTITLE2=Billy Grammer - Papa and Mama
TTITLE3=Dave Dudley - Deutschland Autobahn
TTITLE4=Buddy Meredith - A new girl in town
TTITLE5=Ferlin Husky - The bridge I have never crossed
TTITLE6=Freddy Quinn - Help me make it through the night
TTITLE7=George Kent - Hardscuffle road
TTITLE8=Bobby Bare - The year that Clayton Delaney died
TTITLE9=Bobby Lord - Good old song
TTITLE10=Dave Dudly - Six days on the road
TTITLE11=David Price - The lonesome truck driver's waltz
TTITLE12=George Kent - Hitting the bottle, missing you
TTITLE13=Karen O'Donnell - I know what it's all about now, Mama
TTITLE14=Ronnie Rogers - Diane (Do the wrong again with me)
TTITLE15=Tom Stewart - Long story short
TTITLE16=Roy Braham - Linda's red dress
TTITLE17=Jonny Hill - Oh Susanna
EXTD=
EXTT0=
EXTT1=
EXTT2=
EXTT3=
EXTT4=
EXTT5=
EXTT6=
EXTT7=
EXTT8=
EXTT9=
EXTT10=
EXTT11=
EXTT12=
EXTT13=
EXTT14=
EXTT15=
EXTT16=
EXTT17=
PLAYORDER=
